<svg width="69" height="68" viewBox="0 0 69 68" fill="none" xmlns="http://www.w3.org/2000/svg">
<g filter="url(#filter0_d_289_29)">
<path d="M30.158 24.1412C29.3743 24.6588 28.7015 25.3238 28.178 26.0982C27.6545 26.8727 27.2905 27.7415 27.1068 28.6549C26.7359 30.4997 27.1219 32.4144 28.18 33.978C29.2381 35.5416 30.8817 36.6259 32.749 36.9923C34.6164 37.3588 36.5546 36.9774 38.1373 35.9321C39.72 34.8868 40.8176 33.2631 41.1885 31.4184C41.5595 29.5736 41.1734 27.6588 40.1153 26.0953C39.0572 24.5317 37.4137 23.4474 35.5463 23.0809C33.679 22.7145 31.7407 23.0959 30.158 24.1412ZM49.3056 15.0488C48.6059 14.3575 47.7582 13.8125 46.8297 13.4536C44.3942 12.5098 39.0792 12.5497 35.648 12.5896C35.0963 12.5896 34.585 12.6029 34.1409 12.6029C33.6969 12.6029 33.1721 12.6029 32.607 12.5896C29.1758 12.5497 23.8876 12.4965 21.4521 13.4536C20.5237 13.8125 19.6894 14.3575 18.9763 15.0488C18.2631 15.74 17.7249 16.5775 17.3616 17.4947C16.4062 19.9007 16.46 25.1647 16.487 28.5545C16.487 29.0995 16.5004 29.6046 16.5004 30.03C16.5004 30.4554 16.5004 30.9605 16.487 31.5055C16.46 34.8952 16.4062 40.1592 17.3616 42.5653C17.7249 43.4825 18.2766 44.3067 18.9763 45.0112C19.676 45.7157 20.5237 46.2474 21.4521 46.6064C23.8876 47.5502 29.2027 47.5103 32.6339 47.4704C33.1856 47.4704 33.6969 47.4571 34.1409 47.4571C34.585 47.4571 35.1098 47.4571 35.6749 47.4704C39.1061 47.5103 44.3942 47.5635 46.8297 46.6064C47.7582 46.2474 48.5924 45.7024 49.3056 45.0112C50.0188 44.32 50.557 43.4825 50.9203 42.5653C51.8891 40.1725 51.8353 34.9351 51.7949 31.5321C51.7949 30.9738 51.7815 30.4554 51.7815 30.0167C51.7815 29.578 51.7815 29.0729 51.7949 28.5013C51.8353 25.1116 51.8891 19.8741 50.9203 17.4681C50.557 16.5509 50.0053 15.7267 49.3056 15.0222V15.0488ZM40.2768 20.9642C42.7106 22.5718 44.3983 25.0687 44.9686 27.9057C45.5389 30.7426 44.9451 33.6872 43.3178 36.0916C42.512 37.2821 41.4768 38.3042 40.2711 39.0995C39.0655 39.8948 37.7132 40.4477 36.2913 40.7267C33.4196 41.2901 30.439 40.7035 28.0051 39.0958C25.5713 37.4899 23.8828 34.9947 23.3113 32.159C22.7397 29.3233 23.3318 26.3794 24.9574 23.975C26.5829 21.5706 29.1087 19.9026 31.9791 19.338C34.8496 18.7733 37.8295 19.3583 40.2633 20.9642H40.2768ZM44.2059 20.7913C43.7887 20.5122 43.4523 20.1134 43.2505 19.6481C43.0487 19.1829 43.0083 18.6778 43.1025 18.1726C43.1967 17.6675 43.4523 17.2288 43.8022 16.8699C44.152 16.511 44.623 16.2717 45.1208 16.1787C45.6187 16.0856 46.1435 16.1255 46.6144 16.3249C47.0854 16.5243 47.4891 16.8433 47.7716 17.2554C48.0542 17.6675 48.2022 18.1593 48.2022 18.6645C48.2022 18.9968 48.1349 19.3291 48.0138 19.6349C47.8927 19.9406 47.6909 20.2197 47.4622 20.459C47.2334 20.6983 46.9374 20.8844 46.6279 21.0173C46.3184 21.1503 45.982 21.2167 45.6456 21.2167C45.1343 21.2167 44.6364 21.0705 44.2193 20.7913H44.2059ZM64.2819 8.76118C64.2819 4.06875 60.4201 0.253662 55.6702 0.253662H12.6117C7.86181 0.253662 4 4.06875 4 8.76118V51.2988C4 55.9912 7.86181 59.8063 12.6117 59.8063H55.6702C60.4201 59.8063 64.2819 55.9912 64.2819 51.2988V8.76118ZM52.0371 47.7097C49.5209 50.1955 46.4664 50.9798 43.0217 51.1526C39.4694 51.352 28.8125 51.352 25.2601 51.1526C21.8154 50.9798 18.761 50.1955 16.2448 47.7097C13.7285 45.2239 12.9346 42.2064 12.7732 38.8034C12.5713 35.294 12.5713 24.766 12.7732 21.2566C12.9481 17.8536 13.7285 14.8361 16.2448 12.3503C18.761 9.8645 21.8289 9.08021 25.2601 8.9207C28.8125 8.7213 39.4694 8.7213 43.0217 8.9207C46.4664 9.09351 49.5209 9.8645 52.0371 12.3503C54.5533 14.8361 55.3472 17.8536 55.5087 21.2566C55.7105 24.7527 55.7105 35.2674 55.5087 38.7901C55.3338 42.1931 54.5533 45.2106 52.0371 47.6964V47.7097Z" fill="white"/>
</g>
<defs>
<filter id="filter0_d_289_29" x="0" y="0.253662" width="68.2817" height="67.5526" filterUnits="userSpaceOnUse" color-interpolation-filters="sRGB">
<feFlood flood-opacity="0" result="BackgroundImageFix"/>
<feColorMatrix in="SourceAlpha" type="matrix" values="0 0 0 0 0 0 0 0 0 0 0 0 0 0 0 0 0 0 127 0" result="hardAlpha"/>
<feOffset dy="4"/>
<feGaussianBlur stdDeviation="2"/>
<feComposite in2="hardAlpha" operator="out"/>
<feColorMatrix type="matrix" values="0 0 0 0 0 0 0 0 0 0 0 0 0 0 0 0 0 0 0.25 0"/>
<feBlend mode="normal" in2="BackgroundImageFix" result="effect1_dropShadow_289_29"/>
<feBlend mode="normal" in="SourceGraphic" in2="effect1_dropShadow_289_29" result="shape"/>
</filter>
</defs>
</svg>
