<svg width="32" height="32" viewBox="0 0 115 120" fill="none" xmlns="http://www.w3.org/2000/svg">
<path d="M72.1881 87.7211C61.3934 78.1451 52.1374 52.9357 58.2535 44.2512C75.7849 46.4631 69.9195 45.0957 88.6836 49.664C106.558 56.843 102.248 75.2271 96.1315 83.9116C90.0154 92.5961 82.9828 97.2971 72.1881 87.7211Z" fill="#AB3DA7"/>
<path d="M76.6012 84.3034C77.287 67.4903 67.3497 43.3461 58.2535 44.2512C48.9073 63.4064 51.6467 56.6147 43.0015 78.4614C36.5112 100.999 50.4897 107.855 59.5859 106.949C68.6821 106.044 75.9155 101.117 76.6012 84.3034Z" fill="#AB3DA7"/>
<path d="M34.9571 85.5089C40.767 77.4125 36.9157 70.1245 29.2332 64.6116C11.1114 56.8515 7.13639 65.5451 7.13639 65.5451C3.72174 73.0132 6.3932 79.996 14.0757 85.5089C21.7583 91.0218 29.1472 93.6053 34.9571 85.5089Z" fill="#AB3DA7"/>
<path d="M45.5075 55.0727C53.0853 49.8095 51.6593 41.7905 46.2493 34.0014C31.9975 20.3966 25.9164 26.8658 25.9164 26.8658C20.6925 32.4231 16.5813 42.7099 21.9913 50.499C27.4013 58.2882 37.9298 60.3358 45.5075 55.0727Z" fill="#AB3DA7"/>
<path d="M76.8049 35.5711C84.5096 30.2198 83.1304 22.1683 77.7205 14.3792C63.4143 0.812051 57.2137 7.36428 57.2137 7.36428C51.8872 12.9929 47.6488 23.368 53.0587 31.1571C58.4688 38.9463 69.1002 40.9225 76.8049 35.5711Z" fill="#AB3DA7"/>
<path d="M103.128 45.9785C94.755 48.5735 89.7332 43.293 87.2558 35.2987C85.7928 17.9165 94.1569 17.0286 94.1569 17.0286C101.342 16.2658 107.16 19.0001 109.637 26.9944C112.115 34.9888 111.502 43.3836 103.128 45.9785Z" fill="#AB3DA7"/>
</svg>
