<svg width="70" height="71" viewBox="0 0 70 71" fill="none" xmlns="http://www.w3.org/2000/svg">
<g filter="url(#filter0_d_289_28)">
<path d="M35.3727 0.889221C18.466 0.889221 4.74561 14.6029 4.74561 31.5011C4.74561 48.3994 18.466 62.113 35.3727 62.113C52.2793 62.113 65.9998 48.3994 65.9998 31.5011C65.9998 14.6029 52.2793 0.889221 35.3727 0.889221ZM47.8088 45.9307C47.2901 45.9307 46.969 45.7702 46.4873 45.4863C38.7812 40.8451 29.8153 40.6476 20.9607 42.4621C20.479 42.5856 19.8492 42.7831 19.4911 42.7831C18.2931 42.7831 17.5398 41.8326 17.5398 40.8328C17.5398 39.5614 18.2931 38.9566 19.2194 38.7591C29.3337 36.5249 39.6703 36.7224 48.488 41.9931C49.2413 42.4745 49.6859 42.9065 49.6859 44.0298C49.6859 45.153 48.8091 45.9307 47.8088 45.9307ZM51.1308 37.8333C50.4886 37.8333 50.0564 37.5494 49.6118 37.3149C41.8933 32.7478 30.3834 30.9086 20.1456 33.6859C19.5528 33.8464 19.2317 34.0068 18.676 34.0068C17.3546 34.0068 16.2802 32.933 16.2802 31.6122C16.2802 30.2914 16.9223 29.4151 18.1943 29.0571C21.6275 28.0943 25.1348 27.3784 30.2723 27.3784C38.2872 27.3784 46.0304 29.3657 52.1311 32.9947C53.1314 33.5872 53.5266 34.3525 53.5266 35.4263C53.5143 36.7594 52.4769 37.8333 51.1308 37.8333ZM54.9592 28.4276C54.317 28.4276 53.9218 28.2671 53.3661 27.9462C44.5732 22.7002 28.8521 21.4412 18.676 24.2802C18.2314 24.4036 17.6757 24.6011 17.0829 24.6011C15.4527 24.6011 14.2054 23.3297 14.2054 21.688C14.2054 20.0093 15.2428 19.0589 16.3543 18.7379C20.7013 17.4665 25.5671 16.8617 30.8651 16.8617C39.8803 16.8617 49.3278 18.7379 56.2312 22.7619C57.1945 23.3174 57.8243 24.0827 57.8243 25.5515C57.8243 27.2303 56.4658 28.4276 54.9592 28.4276Z" fill="white"/>
</g>
<defs>
<filter id="filter0_d_289_28" x="0.745605" y="0.889221" width="69.2544" height="69.2238" filterUnits="userSpaceOnUse" color-interpolation-filters="sRGB">
<feFlood flood-opacity="0" result="BackgroundImageFix"/>
<feColorMatrix in="SourceAlpha" type="matrix" values="0 0 0 0 0 0 0 0 0 0 0 0 0 0 0 0 0 0 127 0" result="hardAlpha"/>
<feOffset dy="4"/>
<feGaussianBlur stdDeviation="2"/>
<feComposite in2="hardAlpha" operator="out"/>
<feColorMatrix type="matrix" values="0 0 0 0 0 0 0 0 0 0 0 0 0 0 0 0 0 0 0.25 0"/>
<feBlend mode="normal" in2="BackgroundImageFix" result="effect1_dropShadow_289_28"/>
<feBlend mode="normal" in="SourceGraphic" in2="effect1_dropShadow_289_28" result="shape"/>
</filter>
</defs>
</svg>
