<svg width="115" height="120" viewBox="0 0 115 120" fill="none" xmlns="http://www.w3.org/2000/svg">
<path d="M72.1881 87.7211C61.3934 78.1451 52.1374 52.9357 58.2535 44.2512C75.7849 46.4631 69.9196 45.0957 88.6836 49.664C106.558 56.843 102.248 75.2271 96.1315 83.9116C90.0154 92.5961 82.9828 97.2971 72.1881 87.7211Z" fill="#80D7EA"/>
<path d="M76.6012 84.3034C77.287 67.4903 67.3497 43.3461 58.2535 44.2512C48.9073 63.4064 51.6467 56.6147 43.0015 78.4614C36.5112 100.999 50.4897 107.855 59.5859 106.949C68.6821 106.044 75.9155 101.117 76.6012 84.3034Z" fill="#80D7EA"/>
<path d="M34.9571 85.5089C40.767 77.4125 36.9157 70.1245 29.2332 64.6116C11.1114 56.8515 7.13639 65.5451 7.13639 65.5451C3.72174 73.0132 6.3932 79.996 14.0757 85.5089C21.7583 91.0218 29.1472 93.6053 34.9571 85.5089Z" fill="#80D7EA"/>
<path d="M45.5075 55.0727C53.0853 49.8095 51.6593 41.7905 46.2493 34.0014C31.9975 20.3966 25.9164 26.8658 25.9164 26.8658C20.6925 32.4231 16.5813 42.7099 21.9913 50.499C27.4013 58.2882 37.9298 60.3358 45.5075 55.0727Z" fill="#80D7EA"/>
<path d="M76.8049 35.5711C84.5096 30.2198 83.1304 22.1683 77.7205 14.3792C63.4143 0.812051 57.2137 7.36428 57.2137 7.36428C51.8872 12.9929 47.6488 23.368 53.0587 31.1571C58.4688 38.9463 69.1002 40.9225 76.8049 35.5711Z" fill="#80D7EA"/>
<path d="M103.128 45.9785C94.755 48.5735 89.7332 43.293 87.2558 35.2987C85.7928 17.9165 94.1569 17.0286 94.1569 17.0286C101.342 16.2658 107.16 19.0001 109.637 26.9944C112.115 34.9888 111.502 43.3836 103.128 45.9785Z" fill="#80D7EA"/>
<path d="M63 90.1133C61.8021 90.1133 60.8125 89.8659 60.0312 89.3711C59.25 88.8893 58.6706 88.3034 58.293 87.6133C57.9154 86.9232 57.7266 86.2656 57.7266 85.6406C57.7266 85.1068 57.8372 84.612 58.0586 84.1562C58.293 83.6875 58.7096 83.3099 59.3086 83.0234C59.9076 82.737 60.7669 82.5938 61.8867 82.5938C61.7956 83.0755 61.737 83.5443 61.7109 84C61.6849 84.4427 61.6719 84.8529 61.6719 85.2305C61.6719 86.0768 61.8151 86.7669 62.1016 87.3008C62.401 87.8346 62.9674 88.1341 63.8008 88.1992C64.5299 88.1992 65.2135 87.8151 65.8516 87.0469C66.5026 86.2656 67.1081 85.224 67.668 83.9219C68.2279 82.6198 68.7487 81.168 69.2305 79.5664C69.7122 77.9648 70.1484 76.3307 70.5391 74.6641C70.9427 72.9844 71.3073 71.3893 71.6328 69.8789C71.9583 68.3685 72.2448 67.0534 72.4922 65.9336C72.7526 64.8008 72.974 63.9935 73.1562 63.5117C73.5208 63.1211 73.9375 62.8086 74.4062 62.5742C74.888 62.3268 75.5 62.2031 76.2422 62.2031C75.8255 62.0859 75.3958 61.9883 74.9531 61.9102C74.5104 61.832 74.0482 61.793 73.5664 61.793C72.1602 61.793 70.8125 62.0013 69.5234 62.418C68.2474 62.8346 67.1146 63.388 66.125 64.0781C65.1354 64.7682 64.3542 65.5299 63.7812 66.3633C63.2083 67.1836 62.9219 68.0104 62.9219 68.8438C62.9219 69.5599 63.1628 70.2435 63.6445 70.8945C64.1393 71.5456 64.9401 72.112 66.0469 72.5938C66.0469 72.9714 66.0143 73.3945 65.9492 73.8633C65.8971 74.332 65.8255 74.7617 65.7344 75.1523C65.6432 75.5299 65.5586 75.7708 65.4805 75.875C63.319 74.9896 61.75 73.9349 60.7734 72.7109C59.8099 71.487 59.3281 70.237 59.3281 68.9609C59.3281 67.763 59.6927 66.5977 60.4219 65.4648C61.1641 64.319 62.1927 63.2904 63.5078 62.3789C64.8229 61.4544 66.3724 60.7188 68.1562 60.1719C69.9401 59.625 71.8737 59.3516 73.957 59.3516C75.1419 59.3516 76.3919 59.4753 77.707 59.7227C79.0221 59.957 80.3438 60.1979 81.6719 60.4453C83.013 60.6797 84.3086 60.7969 85.5586 60.7969C86.7435 60.7969 87.8112 60.582 88.7617 60.1523C89.7253 59.7227 90.5391 59.4167 91.2031 59.2344C90.7214 60.875 89.8294 62.1706 88.5273 63.1211C87.2253 64.0586 85.7148 64.5273 83.9961 64.5273C82.9023 64.5273 81.8542 64.3255 80.8516 63.9219C79.862 63.5182 78.8594 63.1341 77.8438 62.7695C77.5182 64.332 77.1667 66.0898 76.7891 68.043C76.4245 69.9831 75.9883 71.9818 75.4805 74.0391C74.9857 76.0833 74.3867 78.0625 73.6836 79.9766C72.9805 81.8776 72.1341 83.5964 71.1445 85.1328C70.168 86.6562 69.0091 87.8672 67.668 88.7656C66.3398 89.6641 64.7839 90.1133 63 90.1133Z" fill="#AB3DA7"/>
</svg>
